# xmcd
#
# Track frame offsets:
#	150
#	32702
#	46350
#	76802
#	96755
#	146909
#	156320
#	180364
#	212243
#	248121
#
# Disc length: 4342 seconds
#
# Revision: 3
# Processed by: cddbd v1.5.2PL0 Copyright (c) Steve Scherf et al.
# Submitted via: audiograbber 1.83.01
#
DISCID=8310f40a
DTITLE=Yes and Friends - Yes and Friends [CD 2)
DYEAR=2007
DGENRE=Progressive Rock
TTITLE0=Yes - Roundabout
TTITLE1=Steve Howe - Walk Don't Run
TTITLE2=Rick Wakeman - Merlin
TTITLE3=Jon Anderson - Owner Of A Lonely Heart
TTITLE4=Yes - And You And I
TTITLE5=John Wetton - The Circle Of St. Giles
TTITLE6=Chris Squire and Billy Sherwood - Watching The World
TTITLE7=Yes - Your Move/I've Seen All Good People
TTITLE8=Adam Wakeman and Damien Wilson - Revealing Science Of God
TTITLE9=Yes - Awaken
EXTD=
EXTT0=
EXTT1=
EXTT2=
EXTT3=
EXTT4=
EXTT5=
EXTT6=
EXTT7=
EXTT8=
EXTT9=
PLAYORDER=
